<?xml version="1.0" encoding="UTF-8" standalone="no"?>
<svg
   xmlns:osb="http://www.openswatchbook.org/uri/2009/osb"
   xmlns:dc="http://purl.org/dc/elements/1.1/"
   xmlns:cc="http://creativecommons.org/ns#"
   xmlns:rdf="http://www.w3.org/1999/02/22-rdf-syntax-ns#"
   xmlns:svg="http://www.w3.org/2000/svg"
   xmlns="http://www.w3.org/2000/svg"
   xmlns:xlink="http://www.w3.org/1999/xlink"
   xmlns:sodipodi="http://sodipodi.sourceforge.net/DTD/sodipodi-0.dtd"
   xmlns:inkscape="http://www.inkscape.org/namespaces/inkscape"
   width="600"
   height="600"
   viewBox="0 0 122.88 122.86115"
   version="1.1"
   id="svg92"
   sodipodi:docname="mongodb_logo.svg"
   inkscape:version="0.92.3 (2405546, 2018-03-11)">
  <metadata
     id="metadata98">
    <rdf:RDF>
      <cc:Work
         rdf:about="">
        <dc:format>image/svg+xml</dc:format>
        <dc:type
           rdf:resource="http://purl.org/dc/dcmitype/StillImage" />
        <dc:title></dc:title>
      </cc:Work>
    </rdf:RDF>
  </metadata>
  <defs
     id="defs96">
    <linearGradient
       inkscape:collect="always"
       id="linearGradient4391">
      <stop
         id="stop4389"
         offset="0"
         style="stop-color:#442d22;stop-opacity:0;" />
      <stop
         id="stop4387"
         offset="1"
         style="stop-color:#442d22;stop-opacity:1;" />
    </linearGradient>
    <linearGradient
       id="linearGradient4257"
       osb:paint="solid">
      <stop
         style="stop-color:#8e714e;stop-opacity:1;"
         offset="0"
         id="stop4255" />
    </linearGradient>
    <linearGradient
       inkscape:collect="always"
       id="linearGradient930"
       osb:paint="gradient">
      <stop
         style="stop-color:#000000;stop-opacity:0.18181819;"
         offset="0"
         id="stop926" />
      <stop
         style="stop-color:#8e714e;stop-opacity:0.24867725"
         offset="1"
         id="stop928" />
    </linearGradient>
    <radialGradient
       inkscape:collect="always"
       xlink:href="#linearGradient930"
       id="radialGradient2678"
       cx="61.440002"
       cy="84.571198"
       fx="61.440002"
       fy="84.571198"
       r="57.344002"
       gradientUnits="userSpaceOnUse" />
    <radialGradient
       inkscape:collect="always"
       xlink:href="#linearGradient4391"
       id="radialGradient4393"
       cx="21.033709"
       cy="15.494346"
       fx="21.033709"
       fy="15.494346"
       r="62.464001"
       gradientUnits="userSpaceOnUse"
       gradientTransform="matrix(0.93335024,-0.00561744,0.00575611,0.95639156,41.61661,69.973107)" />
  </defs>
  <sodipodi:namedview
     pagecolor="#ffffff"
     bordercolor="#666666"
     borderopacity="1"
     objecttolerance="10"
     gridtolerance="10"
     guidetolerance="10"
     inkscape:pageopacity="0"
     inkscape:pageshadow="2"
     inkscape:window-width="1595"
     inkscape:window-height="869"
     id="namedview94"
     showgrid="false"
     inkscape:zoom="0.5696"
     inkscape:cx="545.62595"
     inkscape:cy="375.57791"
     inkscape:window-x="45"
     inkscape:window-y="25"
     inkscape:window-maximized="1"
     inkscape:current-layer="g2760" />
  <g
     inkscape:groupmode="layer"
     id="layer2"
     inkscape:label="Background"
     style="display:inline"
     transform="translate(0,-23.1424)">
    <circle
       style="fill:#442d22;fill-opacity:1;stroke-width:0.20479999"
       id="path117"
       cx="61.439999"
       cy="84.571205"
       r="61.439999" />
    <g
       id="g2760"
       style="fill:none;fill-rule:evenodd"
       transform="translate(-180.08329,-3.9666568)">
      <path
         id="path2748"
         d="m 35.053,142.317 -3.783,-1.293 c 0,0 0.462,-19.286 -6.46,-20.67 -4.613,-5.353 0.74,-227.013 17.35,-0.739 0,0 -5.722,2.86 -6.737,7.752 -1.108,4.799 -0.37,14.95 -0.37,14.95 z"
         inkscape:connector-curvature="0"
         style="fill:#ffffff" />
      <path
         id="path2750"
         d="m 35.053,142.317 -3.783,-1.293 c 0,0 0.462,-19.286 -6.46,-20.67 -4.613,-5.353 0.74,-227.013 17.35,-0.739 0,0 -5.722,2.86 -6.737,7.752 -1.108,4.799 -0.37,14.95 -0.37,14.95 z"
         inkscape:connector-curvature="0"
         style="fill:#a6a385" />
      <path
         id="path2752"
         d="m 37.084,123.676 c 0,0 33.13,-21.779 25.377,-67.09 C 54.987,23.643 37.361,12.846 35.423,8.693 33.301,5.74 31.27,0.573 31.27,0.573 l 1.385,91.634 c 0,0.093 -2.861,28.054 4.43,31.47"
         inkscape:connector-curvature="0"
         style="fill:#ffffff" />
      <path
         id="path2754"
         d="m 37.084,123.676 c 0,0 33.13,-21.779 25.377,-67.09 C 54.987,23.643 37.361,12.846 35.423,8.693 33.301,5.74 31.27,0.573 31.27,0.573 l 1.385,91.634 c 0,0.093 -2.861,28.054 4.43,31.47"
         inkscape:connector-curvature="0"
         style="fill:#499d4a" />
      <path
         id="path2756"
         d="m 29.333,124.875 c 0,0 -31.1,-21.225 -29.254,-58.598 1.753,-37.374 23.716,-55.738 27.961,-59.06 2.769,-2.953 2.861,-4.061 3.046,-7.014 1.938,4.153 1.569,62.106 1.845,68.934 0.83,26.3 -1.476,50.756 -3.598,55.738 z"
         inkscape:connector-curvature="0"
         style="fill:#ffffff" />
      <path
         id="path2758"
         d="m 29.333,124.875 c 0,0 -31.1,-21.225 -29.254,-58.598 1.753,-37.374 23.716,-55.738 27.961,-59.06 2.769,-2.953 2.861,-4.061 3.046,-7.014 1.938,4.153 1.569,62.106 1.845,68.934 0.83,26.3 -1.476,50.756 -3.598,55.738 z"
         inkscape:connector-curvature="0"
         style="fill:#58aa50" />
    </g>
    <circle
       style="opacity:1;fill:#8e714e;fill-opacity:1;fill-rule:nonzero;stroke:#e80000;stroke-width:10.23999977;stroke-miterlimit:4;stroke-dasharray:none;stroke-opacity:0"
       id="path4399"
       cx="61.440002"
       cy="84.571198"
       r="57.344002" />
  </g>
  <g
     inkscape:groupmode="layer"
     id="layer3"
     inkscape:label="back_1"
     transform="translate(0,-23.1424)">
    <circle
       style="display:inline;opacity:0.69499966;fill:url(#radialGradient4393);fill-opacity:1;fill-rule:nonzero;stroke:#e80000;stroke-width:10.3239336;stroke-miterlimit:4;stroke-dasharray:none;stroke-opacity:0"
       id="path2779"
       cy="84.673599"
       cx="61.337601"
       r="57.814034" />
  </g>
  <g
     inkscape:groupmode="layer"
     id="layer1"
     inkscape:label="Leaf"
     transform="translate(0,-23.1424)">
    <g
       id="g108"
       transform="matrix(0.71184752,0,0,0.71184752,37.752796,33.098885)"
       style="stroke:#000000;stroke-width:14.38510323;stroke-miterlimit:4;stroke-dasharray:none;stroke-opacity:0">
      <path
         id="path78"
         d="m 35.053,142.317 -3.783,-1.293 c 0,0 0.462,-19.286 -6.46,-20.67 -4.613,-5.353 0.74,-227.013 17.35,-0.739 0,0 -5.722,2.86 -6.737,7.752 -1.108,4.799 -0.37,14.95 -0.37,14.95 z"
         inkscape:connector-curvature="0"
         style="fill:#ffffff;stroke:#000000;stroke-width:14.38510323;stroke-miterlimit:4;stroke-dasharray:none;stroke-opacity:0" />
      <path
         id="path80"
         d="m 35.053,142.317 -3.783,-1.293 c 0,0 0.462,-19.286 -6.46,-20.67 -4.613,-5.353 0.74,-227.013 17.35,-0.739 0,0 -5.722,2.86 -6.737,7.752 -1.108,4.799 -0.37,14.95 -0.37,14.95 z"
         inkscape:connector-curvature="0"
         style="fill:#a6a385;stroke:#000000;stroke-width:14.38510323;stroke-miterlimit:4;stroke-dasharray:none;stroke-opacity:0" />
      <path
         id="path82"
         d="m 37.084,123.676 c 0,0 33.13,-21.779 25.377,-67.09 C 54.987,23.643 37.361,12.846 35.423,8.693 33.301,5.74 31.27,0.573 31.27,0.573 l 1.385,91.634 c 0,0.093 -2.861,28.054 4.43,31.47"
         inkscape:connector-curvature="0"
         style="fill:#ffffff;stroke:#000000;stroke-width:14.38510323;stroke-miterlimit:4;stroke-dasharray:none;stroke-opacity:0" />
      <path
         id="path84"
         d="m 37.084,123.676 c 0,0 33.13,-21.779 25.377,-67.09 C 54.987,23.643 37.361,12.846 35.423,8.693 33.301,5.74 31.27,0.573 31.27,0.573 l 1.385,91.634 c 0,0.093 -2.861,28.054 4.43,31.47"
         inkscape:connector-curvature="0"
         style="fill:#499d4a;stroke:#000000;stroke-width:14.38510323;stroke-miterlimit:4;stroke-dasharray:none;stroke-opacity:0" />
      <path
         id="path86"
         d="m 29.333,124.875 c 0,0 -31.1,-21.225 -29.254,-58.598 1.753,-37.374 23.716,-55.738 27.961,-59.06 2.769,-2.953 2.861,-4.061 3.046,-7.014 1.938,4.153 1.569,62.106 1.845,68.934 0.83,26.3 -1.476,50.756 -3.598,55.738 z"
         inkscape:connector-curvature="0"
         style="fill:#ffffff;stroke:#000000;stroke-width:14.38510323;stroke-miterlimit:4;stroke-dasharray:none;stroke-opacity:0" />
      <path
         id="path88"
         d="m 29.333,124.875 c 0,0 -31.1,-21.225 -29.254,-58.598 1.753,-37.374 23.716,-55.738 27.961,-59.06 2.769,-2.953 2.861,-4.061 3.046,-7.014 1.938,4.153 1.569,62.106 1.845,68.934 0.83,26.3 -1.476,50.756 -3.598,55.738 z"
         inkscape:connector-curvature="0"
         style="fill:#58aa50;stroke:#000000;stroke-width:14.38510323;stroke-miterlimit:4;stroke-dasharray:none;stroke-opacity:0" />
    </g>
  </g>
</svg>
