<?xml version="1.0" encoding="UTF-8" standalone="no"?>
<svg
   xmlns:dc="http://purl.org/dc/elements/1.1/"
   xmlns:cc="http://creativecommons.org/ns#"
   xmlns:rdf="http://www.w3.org/1999/02/22-rdf-syntax-ns#"
   xmlns:svg="http://www.w3.org/2000/svg"
   xmlns="http://www.w3.org/2000/svg"
   xml:space="preserve"
   style="enable-background:new 0 0 490.1 490.1;"
   viewBox="0 0 490.1 490.1"
   y="0px"
   x="0px"
   id="Capa_1"
   version="1.1"><metadata
   id="metadata1185"><rdf:RDF><cc:Work
       rdf:about=""><dc:format>image/svg+xml</dc:format><dc:type
         rdf:resource="http://purl.org/dc/dcmitype/StillImage" /><dc:title></dc:title></cc:Work></rdf:RDF></metadata><defs
   id="defs1183" />
<g
   id="g1148">
	<g
   id="g1146">
		<path
   id="path1142"
   d="M245,261.75c71.9,0,131.4-57.3,131.4-130.3S316.9,0.05,245,0.05s-131.4,57.3-131.4,130.3S173.1,261.75,245,261.75z     M245,40.75c50,0,90.7,40.7,90.7,89.7s-40.7,89.6-90.7,89.6s-90.7-40.7-90.7-89.7S195,40.75,245,40.75z" />
		<path
   id="path1144"
   d="M333.6,274.25c-8.3-2.1-16.7,0-21.9,6.3l-66.7,76.1l-66.7-76.1c-5.2-6.3-14.6-8.3-21.9-6.3C61.5,305.55,0,382.65,0,469.15    c0,11.5,9.4,20.9,20.9,20.9h448.3c11.5,0,20.9-9.4,20.9-20.9C490,382.65,428.5,305.55,333.6,274.25z M42.7,449.35    c8.4-57.3,50.1-106.3,114.7-131.3l73,83.4c7.3,9.4,22.9,9.4,30.2,0l73-83.4c63.6,25,106.4,75,114.7,131.3H42.7z" />
	</g>
</g>
<g
   id="g1150">
</g>
<g
   id="g1152">
</g>
<g
   id="g1154">
</g>
<g
   id="g1156">
</g>
<g
   id="g1158">
</g>
<g
   id="g1160">
</g>
<g
   id="g1162">
</g>
<g
   id="g1164">
</g>
<g
   id="g1166">
</g>
<g
   id="g1168">
</g>
<g
   id="g1170">
</g>
<g
   id="g1172">
</g>
<g
   id="g1174">
</g>
<g
   id="g1176">
</g>
<g
   id="g1178">
</g>
<circle
   r="122.98228"
   cy="346.55951"
   cx="363.07306"
   id="path1796"
   style="opacity:1;fill:#008200;fill-opacity:1;fill-rule:nonzero;stroke:#ffffff;stroke-width:12.21200085;stroke-miterlimit:4;stroke-dasharray:none;stroke-opacity:1" /><text
   id="text1800"
   y="438.7045"
   x="240.71289"
   style="font-style:normal;font-weight:normal;font-size:283.58804321px;line-height:1.25;font-family:sans-serif;letter-spacing:0px;word-spacing:0px;fill:#000000;fill-opacity:1;stroke:none;stroke-width:1"
   xml:space="preserve"><tspan
     style="fill:#ffffff;fill-opacity:1;stroke-width:1;-inkscape-font-specification:'sans-serif Bold';font-family:sans-serif;font-weight:bold;font-style:normal;font-stretch:normal;font-variant:normal"
     y="438.7045"
     x="240.71289"
     id="tspan1798">+</tspan></text>
</svg>